<svg id="Layer_1" data-name="Layer 1" xmlns="http://www.w3.org/2000/svg" viewBox="0 0 744.51 298.3"><defs><style>.cls-1{fill:#5ec343;}</style></defs><title>shoplogo-freelogovectors.net</title><path class="cls-1" d="M428.59,276c-41.07,0-61.56,13.87-78,25.07l-.48.32a4,4,0,0,0-1.23,5.39l17,29.13a3.78,3.78,0,0,0,4.69,1.93,4.22,4.22,0,0,0,1.6-.83l1.28-1.05c8.48-7.08,21.29-17.75,54.1-20.37,18.27-1.46,34.07,3.42,45.64,14.1,12.81,11.76,20.45,30.76,20.45,50.8,0,36.84-21.81,60-56.85,60.51-28.88-.15-48.3-15.15-48.3-37.33,0-11.74,4.64-20.37,15.06-28a3.63,3.63,0,0,0,1.21-5.16L390.14,343a3.84,3.84,0,0,0-4.21-2.15,4.18,4.18,0,0,0-1.61.52c-16.38,9.67-35.69,28.33-34.62,62.36,1.33,43.29,37.46,76.33,84.45,77.68h5.35c55.85-1.8,96.14-43.06,96.14-98.91,0-51.68-37.5-106.52-107-106.52ZM652.05,424c-25.32,0-45.45-21-45.45-46.62S626.71,331,652.05,331s45.63,20.78,45.63,46.41S677.38,424,652.05,424ZM603.68,311.39v-24a1.55,1.55,0,0,0-1.77-1.76H560.77A1.56,1.56,0,0,0,559,287.4v235a1.6,1.6,0,0,0,1.1,1.64,1.75,1.75,0,0,0,.68.13h44.06a1.57,1.57,0,0,0,1.78-1.77V445.24h.66c7,10.63,26.13,23.37,51.1,23.37,47,0,86.13-38.82,86.13-91.3,0-50.34-38.86-91.14-88.36-91.14-22,0-40.53,12.16-52.44,26.83l0-1.62ZM100.11,362.1s-21.31-5-29.17-7-21.57-6.43-21.57-16.62c0-10.65,11-13.64,22.3-13.64s23.72,2.69,24.7,15.11a1.58,1.58,0,0,0,1.79,1.57l41.29-.15a1.58,1.58,0,0,0,1.77-1.88c-2.56-39.71-37.52-53.93-69.8-53.93-38.28,0-66.19,25.08-66.19,52.87,0,20.2,5.76,39.18,50.9,52.37,7.87,2.32,18.67,5.28,28.07,7.84,11.3,3.13,17.31,7.83,17.31,15.37,0,8.66-12.76,14.7-25,14.7-18,0-30.71-6.65-31.75-18.54A1.57,1.57,0,0,0,43,408.61l-41.22.19A1.56,1.56,0,0,0,0,410.65c1.9,37.47,38.23,57.67,72.11,57.67,50.36,0,73.29-28.39,73.29-54.76,0-12.31-2.81-40.66-45.27-51.47Zm67.43-134.45V466.7a1.57,1.57,0,0,0,1.79,1.79h44.06a1.58,1.58,0,0,0,1.79-1.79V364.77c0-19.74,13.25-33.82,34.5-33.82,23.29,0,29.09,19,29.09,38.41V466.7a1.58,1.58,0,0,0,1.81,1.79h43.87a1.58,1.58,0,0,0,1.79-1.79V363.54c0-3.55-.15-7-.43-10.4a90.9,90.9,0,0,0-8.16-31.88c-10.18-21.25-29.49-35-58.55-35a58.41,58.41,0,0,0-45.78,23.41l-1.09,1.3V227.64a1.58,1.58,0,0,0-1.79-1.8H169.33a1.61,1.61,0,0,0-1.79,1.8Z" transform="translate(0.01 -225.84)"/></svg>